<?xml version="1.0" encoding="utf-8"?>
<!-- Generator: Adobe Illustrator 23.0.1, SVG Export Plug-In . SVG Version: 6.00 Build 0)  -->
<svg version="1.1" id="Layer_1" xmlns="http://www.w3.org/2000/svg" xmlns:xlink="http://www.w3.org/1999/xlink" x="0px" y="0px"
	 viewBox="0 0 553.83 188.74" style="enable-background:new 0 0 553.83 188.74;" xml:space="preserve">
<style type="text/css">
	.st0{fill-rule:evenodd;clip-rule:evenodd;fill:#907D54;}
	.st1{fill:#907D54;}
</style>
<g>
	<g>
		<g>
			<g>
				<g>
					<g>
						<polygon class="st0" points="143.47,138.43 143.47,118.79 171.21,118.79 171.21,138.43 178.05,138.43 178.05,96.06 
							171.21,96.06 171.21,112.77 143.47,112.77 143.47,96.06 136.61,96.06 136.61,138.43 						"/>
					</g>
					<g>
						<path class="st0" d="M208.01,134.95c0.68,3.34,3.02,3.82,5.47,3.82c1.53,0,3.3-0.14,4.61-0.35l0.27-0.05v-4.76l-0.39,0.08
							c-0.55,0.11-1.36,0.23-1.98,0.23c-1.64,0-2.3-0.67-2.3-2.3l-0.01-16.48c0-7.86-9.03-9.03-14.41-9.03
							c-9.85,0-14.78,3.47-15.51,10.93l-0.04,0.36h6.17l0.01-0.31c0.14-3.88,3.13-5.76,9.14-5.76c5.96,0,8.5,1.41,8.5,4.7
							c0,2.4-1.62,2.99-5.02,3.36l-6.66,0.7c-9.67,1.04-13.44,3.8-13.44,9.85c0,2.87,1.25,9.56,12.78,9.56
							C199.51,139.48,205.2,138.06,208.01,134.95z M204.08,131.94c-2.2,1.5-5.17,2.33-8.37,2.33c-4.07,0-6.8-1.82-6.8-4.52
							c0-2.77,1.87-4.09,6.67-4.7l6.6-0.82c2.63-0.33,4.3-0.66,5.36-1.41v3.19C207.54,128.31,206.31,130.41,204.08,131.94z"/>
					</g>
					<g>
						<path class="st0" d="M256.32,133.69c-0.55,0.11-1.36,0.23-1.98,0.23c-1.64,0-2.3-0.67-2.3-2.3l-0.01-16.48
							c0-7.86-9.03-9.03-14.41-9.03c-9.85,0-14.78,3.47-15.51,10.93l-0.04,0.36h6.17l0.01-0.31c0.14-3.88,3.13-5.76,9.14-5.76
							c5.96,0,8.5,1.41,8.5,4.7c0,2.4-1.62,2.99-5.02,3.36l-6.66,0.7c-9.67,1.04-13.44,3.8-13.44,9.85c0,2.87,1.25,9.56,12.78,9.56
							c4.33,0,10.02-1.42,12.82-4.53c0.68,3.34,3.02,3.82,5.47,3.82c1.53,0,3.3-0.14,4.61-0.35l0.27-0.05v-4.76L256.32,133.69z
							 M245.89,126.01c0,2.3-1.23,4.41-3.46,5.93c-2.2,1.5-5.17,2.33-8.37,2.33c-4.07,0-6.8-1.82-6.8-4.52
							c0-2.77,1.87-4.09,6.67-4.7l6.6-0.82c2.63-0.33,4.3-0.66,5.36-1.41V126.01z"/>
					</g>
					<g>
						<path class="st0" d="M258.25,128.13l0.03,0.35c0.53,7.3,5.91,11,15.99,11c4.86,0,8.68-0.88,11.37-2.61
							c2.87-1.85,4.33-4.6,4.32-8.18c0-4.74-3.49-7.42-10.98-8.45l-8.3-1.11c-4.04-0.57-4.8-1.66-4.8-3.48
							c0-1.51,0.82-2.65,2.44-3.4c1.32-0.61,3.2-0.95,5.3-0.95c6.3,0,8.7,2.8,8.85,5.42l0.02,0.31H289l-0.03-0.35
							c-0.61-6.82-6.03-10.58-15.29-10.58c-4.3,0-7.9,0.92-10.39,2.67c-2.55,1.79-3.9,4.39-3.9,7.53c0,5.04,4.31,7.88,8.58,8.45
							l9.64,1.28c4.6,0.63,5.5,1.86,5.5,3.77c0,0.82-0.29,2-1.7,2.94c-1.53,1.02-3.99,1.53-7.32,1.53c-6.87,0-9.32-3-9.32-5.81
							v-0.33L258.25,128.13L258.25,128.13z"/>
					</g>
				</g>
				<g>
					<g>
						<polygon class="st0" points="341.07,96.06 308.03,96.06 308.03,138.43 315.21,138.43 315.2,119.96 339.87,119.96 
							339.86,113.59 315.2,113.59 315.2,102.42 341.08,102.42 						"/>
					</g>
					<g>
						<path class="st0" d="M357.98,96.06l-0.04,0.48c-0.4,4.71-4.28,7.1-11.52,7.1h-1.91v5.56h12.1l0.01,29.23h7.18l-0.02-42.37
							H357.98z"/>
					</g>
					<g>
						<polygon class="st0" points="425.82,102.42 425.82,96.06 387.38,96.06 387.38,102.42 403.01,102.42 403.01,138.43 
							410.21,138.43 410.21,102.42 						"/>
					</g>
					<g>
						<path class="st0" d="M438.32,106.01c-5.68,0-10.38,1.72-13.6,4.98c-2.91,2.95-4.52,7.12-4.52,11.75
							c0,10.16,7.12,16.73,18.13,16.73c5.76,0,13.02-2.78,16.11-10.57l0.28-0.71h-7.24l-0.14,0.3c-2.1,4.58-7.21,5.08-9.31,5.08
							c-4.68,0-9.87-3-10.6-8.57h27.85v-1.27C455.29,110.66,446.52,106.01,438.32,106.01z M438.04,111.92
							c5.21,0,8.97,2.87,9.97,7.52h-20.34C428.68,114.91,432.77,111.92,438.04,111.92z"/>
					</g>
					<g>
						<path class="st0" d="M494.1,133.34c-0.53,0.11-1.32,0.22-1.92,0.22c-1.5,0-2.08-0.58-2.09-2.08v-16.32
							c0-7.96-9.08-9.15-14.49-9.15c-9.88,0-14.83,3.5-15.57,11.01l-0.06,0.57h6.52l0.02-0.5c0.13-3.71,3.03-5.52,8.85-5.52
							c5.76,0,8.22,1.33,8.22,4.46c0,2.23-1.48,2.77-4.8,3.13l-6.6,0.7c-9.58,1.03-13.49,3.91-13.49,9.96
							c0,2.91,1.26,9.67,12.86,9.67c4.2,0,9.69-1.35,12.59-4.28c0.81,3.13,3.22,3.58,5.53,3.58c1.52,0,3.28-0.14,4.6-0.35l0.44-0.07
							v-5.13L494.1,133.34z M483.61,125.92c0,2.21-1.18,4.24-3.34,5.71c-2.15,1.47-5.05,2.28-8.18,2.28c-3.91,0-6.54-1.72-6.54-4.28
							c0-2.65,1.74-3.86,6.43-4.46l6.54-0.81c2.39-0.3,4-0.61,5.09-1.23V125.92z"/>
					</g>
					<g>
						<path class="st0" d="M551.75,117.24c-0.01-8.87-7.58-11.23-12.05-11.23c-5.22,0-9.12,1.67-12.22,5.26
							c-2.33-3.4-5.98-5.26-10.36-5.26c-2.93,0-8.1,0.64-11.46,4.7v-3.66h-6.83v31.38h6.85l-0.01-18c0-2.63,0.97-4.83,2.81-6.35
							c1.69-1.39,4.04-2.16,6.62-2.16c3.09,0,6.77,1.16,6.78,6.71l0.01,19.8h6.83v-18.87c0-2.49,0.93-4.44,2.78-5.79
							c1.64-1.2,4-1.85,6.65-1.85c3.09,0,6.77,1.16,6.78,6.71l0.01,19.8h6.82v-21.19C551.76,117.24,551.75,117.24,551.75,117.24z"/>
					</g>
				</g>
			</g>
			<g>
				<g>
					<path class="st1" d="M366.72,97.22c0.2-0.45,0.47-0.84,0.81-1.18c0.34-0.33,0.74-0.59,1.2-0.78c0.46-0.19,0.94-0.28,1.45-0.28
						s0.99,0.09,1.45,0.28c0.45,0.19,0.85,0.45,1.19,0.78s0.61,0.73,0.81,1.18s0.3,0.94,0.3,1.47c0,0.54-0.1,1.04-0.3,1.49
						c-0.2,0.46-0.47,0.85-0.81,1.19c-0.34,0.34-0.74,0.6-1.19,0.78c-0.45,0.19-0.93,0.28-1.45,0.28c-0.51,0-1-0.09-1.45-0.28
						c-0.46-0.19-0.86-0.45-1.2-0.78c-0.34-0.34-0.61-0.73-0.81-1.19s-0.3-0.95-0.3-1.49C366.42,98.16,366.52,97.67,366.72,97.22z
						 M367.33,99.96c0.16,0.39,0.37,0.73,0.65,1.01c0.28,0.29,0.6,0.51,0.98,0.67c0.38,0.16,0.78,0.24,1.22,0.24
						c0.43,0,0.83-0.08,1.21-0.24c0.37-0.16,0.7-0.39,0.97-0.67c0.28-0.29,0.49-0.62,0.65-1.01s0.23-0.81,0.23-1.27
						c0-0.45-0.08-0.86-0.23-1.25c-0.16-0.39-0.37-0.72-0.65-1s-0.6-0.51-0.97-0.67c-0.37-0.16-0.78-0.24-1.21-0.24
						c-0.44,0-0.85,0.08-1.22,0.24c-0.38,0.16-0.7,0.39-0.98,0.67s-0.49,0.62-0.65,1c-0.16,0.39-0.23,0.8-0.23,1.25
						C367.1,99.15,367.18,99.57,367.33,99.96z M370.41,96.52c0.52,0,0.9,0.1,1.15,0.31s0.37,0.52,0.37,0.94
						c0,0.39-0.11,0.68-0.33,0.86s-0.49,0.29-0.82,0.32l1.25,1.93h-0.73L370.11,99h-0.72v1.88h-0.68v-4.36H370.41z M370.11,98.46
						c0.15,0,0.3,0,0.43-0.01c0.14-0.01,0.26-0.04,0.36-0.08c0.11-0.05,0.19-0.12,0.25-0.21c0.06-0.1,0.09-0.23,0.09-0.4
						c0-0.15-0.03-0.26-0.08-0.35c-0.06-0.09-0.13-0.15-0.22-0.2c-0.09-0.05-0.19-0.08-0.31-0.09c-0.12-0.02-0.23-0.02-0.34-0.02
						h-0.9v1.39h0.72V98.46z"/>
				</g>
			</g>
		</g>
		<g>
			<g>
				<g>
					<rect x="135.04" y="84.1" class="st1" width="416.71" height="1.32"/>
				</g>
			</g>
			<g>
				<g>
					<path class="st1" d="M166.31,63.6c0.88,0.55,1.77,1.14,2.67,1.77c0.91,0.63,1.83,1.32,2.77,2.07c0.36,0.26,0.66,0.56,0.92,0.9
						c0.26,0.34,0.39,0.74,0.39,1.19c0,0.65-0.23,1.2-0.68,1.65c-0.45,0.45-1.01,0.68-1.65,0.68c-0.55,0-1.1-0.23-1.65-0.68
						c-1.33-0.97-2.69-1.91-4.08-2.82c-1.39-0.91-2.84-1.72-4.35-2.43c-1.51-0.71-3.07-1.28-4.69-1.7s-3.31-0.63-5.06-0.63h-9.68
						c-0.42,0.07-0.78,0.26-1.07,0.58c-0.29,0.32-0.44,0.73-0.44,1.22v4.13c0,0.65-0.24,1.2-0.71,1.65
						c-0.47,0.45-1.01,0.68-1.63,0.68c-0.65,0-1.2-0.23-1.65-0.68s-0.68-1-0.68-1.65v-4.67c0-0.81,0.15-1.58,0.46-2.31
						c0.31-0.73,0.72-1.36,1.24-1.9s1.13-0.96,1.85-1.26c0.71-0.31,1.49-0.46,2.33-0.46h25.77c0.49,0,0.92-0.17,1.29-0.51
						s0.56-0.77,0.56-1.29c0-0.49-0.19-0.91-0.56-1.26c-0.37-0.36-0.8-0.53-1.29-0.53h-29.32c-0.65,0-1.2-0.23-1.65-0.68
						s-0.68-1-0.68-1.65s0.23-1.2,0.68-1.65s1-0.68,1.65-0.68h29.13c0.91,0,1.76,0.17,2.55,0.51c0.79,0.34,1.49,0.8,2.09,1.39
						c0.6,0.58,1.07,1.26,1.41,2.04c0.34,0.78,0.51,1.62,0.51,2.53s-0.17,1.75-0.51,2.53s-0.81,1.46-1.41,2.04s-1.3,1.05-2.09,1.39
						s-1.65,0.51-2.55,0.51h-0.19L166.31,63.6L166.31,63.6z"/>
				</g>
				<g>
					<path class="st1" d="M182.6,69.53c0,0.65-0.23,1.2-0.68,1.65c-0.45,0.45-1.01,0.68-1.65,0.68c-0.65,0-1.2-0.23-1.65-0.68
						s-0.68-1-0.68-1.65V53c0-0.65,0.23-1.2,0.68-1.65s1-0.68,1.65-0.68s1.2,0.23,1.65,0.68s0.68,1.01,0.68,1.65V69.53z"/>
				</g>
				<g>
					<path class="st1" d="M187.46,61.26c0-1.23,0.2-2.47,0.61-3.72c0.4-1.25,1-2.38,1.77-3.4c0.78-1.02,1.72-1.86,2.82-2.5
						c1.1-0.65,2.35-0.97,3.74-0.97h28.35c0.65,0,1.2,0.23,1.65,0.68s0.68,1.01,0.68,1.65c0,0.65-0.23,1.2-0.68,1.65
						s-1,0.68-1.65,0.68h-27.33c-1.14,0-2.05,0.2-2.75,0.61s-1.25,0.9-1.65,1.48c-0.41,0.58-0.68,1.22-0.83,1.92
						c-0.15,0.7-0.22,1.34-0.22,1.92c0,0.58,0.07,1.22,0.22,1.92c0.15,0.7,0.42,1.34,0.83,1.92s0.96,1.08,1.65,1.48
						c0.7,0.41,1.61,0.61,2.75,0.61h27.33c0.65,0,1.2,0.23,1.65,0.68s0.68,1.01,0.68,1.65c0,0.65-0.23,1.2-0.68,1.65
						c-0.45,0.45-1,0.68-1.65,0.68h-28.84c-1.33,0-2.51-0.32-3.55-0.97c-1.04-0.65-1.92-1.48-2.65-2.5s-1.29-2.16-1.68-3.43
						C187.65,63.69,187.46,62.46,187.46,61.26z"/>
				</g>
				<g>
					<path class="st1" d="M270.03,69.53c0,0.65-0.23,1.2-0.68,1.65c-0.45,0.45-1,0.68-1.65,0.68s-1.2-0.23-1.65-0.68
						c-0.45-0.45-0.68-1-0.68-1.65V63.6h-28.74v5.93c0,0.65-0.23,1.2-0.68,1.65c-0.45,0.45-1.01,0.68-1.65,0.68
						c-0.65,0-1.2-0.23-1.65-0.68s-0.68-1-0.68-1.65V53c0-0.65,0.23-1.2,0.68-1.65s1-0.68,1.65-0.68s1.2,0.23,1.65,0.68
						s0.68,1.01,0.68,1.65v5.93h28.74V53c0-0.65,0.23-1.2,0.68-1.65c0.45-0.45,1-0.68,1.65-0.68s1.2,0.23,1.65,0.68
						c0.45,0.45,0.68,1.01,0.68,1.65V69.53z"/>
				</g>
			</g>
			<g>
				<g>
					<path class="st1" d="M294.46,53c0-0.65,0.23-1.2,0.68-1.65c0.45-0.45,1-0.68,1.65-0.68h34.5c0.65,0,1.2,0.23,1.65,0.68
						s0.68,1.01,0.68,1.65c0,0.65-0.23,1.2-0.68,1.65c-0.45,0.45-1.01,0.68-1.65,0.68h-34.5c-0.65,0-1.2-0.23-1.65-0.68
						S294.46,53.65,294.46,53z M300.4,71.88c-0.71,0-1.43-0.15-2.14-0.46c-0.71-0.31-1.35-0.74-1.9-1.29s-1.01-1.22-1.36-1.99
						c-0.36-0.78-0.54-1.65-0.54-2.63v-4.38c0-0.88,0.25-1.46,0.75-1.75s1.29-0.44,2.36-0.44h32.65c0.65,0,1.2,0.23,1.65,0.68
						c0.45,0.46,0.68,1.01,0.68,1.65c0,0.65-0.23,1.2-0.68,1.65c-0.46,0.46-1.01,0.68-1.65,0.68h-31.09v2.38
						c0,0.32,0.14,0.61,0.41,0.85c0.28,0.24,0.64,0.36,1.1,0.36h30.65c0.65,0,1.2,0.23,1.65,0.68s0.68,1.01,0.68,1.65
						s-0.23,1.2-0.68,1.65s-1.01,0.68-1.65,0.68H300.4V71.88z"/>
				</g>
				<g>
					<path class="st1" d="M371.63,53c0-0.65,0.23-1.2,0.68-1.65c0.45-0.45,1-0.68,1.65-0.68s1.2,0.23,1.65,0.68
						c0.45,0.45,0.68,1.01,0.68,1.65v14.16c0,1.33-0.45,2.45-1.34,3.36c-0.89,0.91-2,1.36-3.33,1.36c-0.45,0-0.9-0.06-1.34-0.19
						c-0.44-0.13-0.84-0.31-1.19-0.53l-22.28-13.62c-0.62-0.36-1.13-0.64-1.53-0.85c-0.41-0.21-0.74-0.32-1-0.32
						c-0.49,0-0.8,0.31-0.92,0.92c-0.13,0.62-0.19,1.51-0.19,2.68v9.58c0,0.65-0.23,1.2-0.68,1.65c-0.46,0.45-1.01,0.68-1.65,0.68
						c-0.65,0-1.2-0.23-1.65-0.68c-0.46-0.45-0.68-1.01-0.68-1.65V55.38c0-1.33,0.45-2.45,1.34-3.36c0.89-0.91,2-1.36,3.33-1.36
						c0.45,0,0.9,0.07,1.34,0.2s0.83,0.31,1.19,0.53l22.28,13.62c0.62,0.36,1.13,0.64,1.53,0.85s0.74,0.32,1,0.32
						c0.49,0,0.79-0.31,0.92-0.92c0.13-0.62,0.19-1.51,0.19-2.68V53z"/>
				</g>
				<g>
					<path class="st1" d="M381.17,53c0-0.65,0.23-1.2,0.68-1.65c0.45-0.45,1-0.68,1.65-0.68H418c0.65,0,1.2,0.23,1.65,0.68
						s0.68,1.01,0.68,1.65c0,0.65-0.23,1.2-0.68,1.65c-0.45,0.45-1.01,0.68-1.65,0.68h-34.5c-0.65,0-1.2-0.23-1.65-0.68
						C381.39,54.2,381.17,53.65,381.17,53z M387.1,71.88c-0.71,0-1.43-0.15-2.14-0.46c-0.71-0.31-1.35-0.74-1.9-1.29
						s-1.01-1.22-1.36-1.99c-0.36-0.78-0.54-1.65-0.54-2.63v-4.38c0-0.88,0.25-1.46,0.75-1.75s1.29-0.44,2.36-0.44h32.65
						c0.65,0,1.2,0.23,1.65,0.68c0.45,0.46,0.68,1.01,0.68,1.65c0,0.65-0.23,1.2-0.68,1.65c-0.46,0.46-1.01,0.68-1.65,0.68h-31.09
						v2.38c0,0.32,0.14,0.61,0.41,0.85c0.28,0.24,0.64,0.36,1.1,0.36H418c0.65,0,1.2,0.23,1.65,0.68s0.68,1.01,0.68,1.65
						s-0.23,1.2-0.68,1.65s-1.01,0.68-1.65,0.68h-30.9V71.88z"/>
				</g>
				<g>
					<path class="st1" d="M456.48,63.61c0.88,0.55,1.77,1.14,2.68,1.78c0.91,0.63,1.83,1.32,2.77,2.07c0.36,0.26,0.67,0.56,0.92,0.9
						c0.26,0.34,0.39,0.74,0.39,1.19c0,0.65-0.23,1.2-0.68,1.65c-0.46,0.45-1.01,0.68-1.65,0.68c-0.55,0-1.1-0.23-1.65-0.68
						c-1.33-0.97-2.69-1.91-4.09-2.82c-1.4-0.91-2.85-1.72-4.36-2.43c-1.51-0.71-3.07-1.28-4.69-1.7s-3.31-0.63-5.06-0.63h-9.68
						c-0.42,0.07-0.78,0.26-1.07,0.58s-0.44,0.73-0.44,1.22v4.14c0,0.65-0.24,1.2-0.71,1.65c-0.47,0.45-1.01,0.68-1.63,0.68
						c-0.65,0-1.2-0.23-1.65-0.68c-0.46-0.45-0.68-1.01-0.68-1.65v-4.67c0-0.81,0.15-1.58,0.46-2.31s0.72-1.36,1.24-1.9
						c0.52-0.53,1.14-0.96,1.85-1.27s1.49-0.46,2.34-0.46h25.79c0.49,0,0.92-0.17,1.29-0.51s0.56-0.77,0.56-1.29
						c0-0.49-0.19-0.91-0.56-1.27s-0.8-0.53-1.29-0.53h-29.34c-0.65,0-1.2-0.23-1.65-0.68c-0.46-0.45-0.68-1.01-0.68-1.65
						c0-0.65,0.23-1.2,0.68-1.65c0.45-0.45,1-0.68,1.65-0.68h29.14c0.91,0,1.76,0.17,2.55,0.51c0.79,0.34,1.49,0.8,2.09,1.39
						c0.6,0.58,1.07,1.27,1.41,2.04c0.34,0.78,0.51,1.62,0.51,2.53s-0.17,1.75-0.51,2.53s-0.81,1.46-1.41,2.04s-1.3,1.05-2.09,1.39
						c-0.8,0.34-1.65,0.51-2.55,0.51h-0.2L456.48,63.61L456.48,63.61z"/>
				</g>
				<g>
					<path class="st1" d="M480.96,61.27c0-0.65,0.23-1.2,0.68-1.65c0.45-0.45,1-0.68,1.65-0.68h18.63c0.81,0,1.57,0.15,2.29,0.46
						c0.71,0.31,1.34,0.73,1.87,1.27c0.53,0.53,0.95,1.17,1.24,1.9c0.29,0.73,0.44,1.5,0.44,2.31v1.07c0,0.81-0.15,1.58-0.44,2.31
						c-0.29,0.73-0.71,1.36-1.24,1.9c-0.53,0.53-1.16,0.96-1.87,1.27s-1.48,0.46-2.29,0.46h-25.35c-1.33,0-2.51-0.32-3.55-0.97
						c-1.04-0.65-1.92-1.48-2.65-2.51c-0.73-1.02-1.29-2.16-1.68-3.43c-0.39-1.26-0.58-2.5-0.58-3.7c0-1.23,0.2-2.47,0.61-3.72
						c0.4-1.25,1-2.38,1.78-3.41c0.78-1.02,1.72-1.86,2.82-2.51c1.1-0.65,2.35-0.97,3.75-0.97h28.37c0.65,0,1.2,0.23,1.65,0.68
						c0.45,0.45,0.68,1.01,0.68,1.65c0,0.65-0.23,1.2-0.68,1.65c-0.46,0.45-1.01,0.68-1.65,0.68h-27.3c-1.14,0-2.05,0.2-2.75,0.61
						s-1.25,0.9-1.65,1.48s-0.68,1.22-0.83,1.92c-0.15,0.7-0.22,1.34-0.22,1.92c0,0.58,0.07,1.23,0.22,1.92
						c0.15,0.7,0.42,1.34,0.83,1.92c0.41,0.58,0.96,1.08,1.65,1.48c0.7,0.41,1.61,0.61,2.75,0.61h23.6c0.39,0,0.74-0.18,1.05-0.53
						c0.31-0.36,0.46-0.78,0.46-1.26c0-0.49-0.14-0.91-0.41-1.27c-0.28-0.36-0.64-0.53-1.09-0.53h-18.44c-0.65,0-1.2-0.23-1.65-0.68
						C481.18,62.47,480.96,61.92,480.96,61.27z"/>
				</g>
				<g>
					<path class="st1" d="M534.53,69.54c0,0.65-0.23,1.2-0.68,1.65c-0.46,0.45-1.01,0.68-1.65,0.68c-0.65,0-1.2-0.23-1.65-0.68
						s-0.68-1.01-0.68-1.65V63.6c-1.23,0-2.43-0.16-3.6-0.49c-1.17-0.32-2.39-0.83-3.67-1.53c-1.28-0.7-2.65-1.6-4.11-2.7
						c-1.46-1.1-3.1-2.45-4.91-4.04c-0.26-0.23-0.48-0.5-0.66-0.83c-0.18-0.32-0.27-0.66-0.27-1.02c0-0.65,0.23-1.2,0.68-1.65
						s1-0.68,1.65-0.68c0.32,0,0.62,0.07,0.88,0.2s0.52,0.29,0.78,0.49c2.07,1.82,3.82,3.24,5.23,4.26s2.68,1.78,3.8,2.26
						c1.12,0.49,2.18,0.79,3.19,0.9s2.14,0.17,3.41,0.17c1.27,0,2.38-0.05,3.36-0.15c0.97-0.1,2.01-0.39,3.11-0.88
						s2.36-1.24,3.77-2.26c1.41-1.02,3.17-2.46,5.28-4.31c0.55-0.45,1.1-0.68,1.65-0.68c0.65,0,1.2,0.23,1.65,0.68
						s0.68,1.01,0.68,1.65c0,0.36-0.09,0.7-0.27,1.02s-0.4,0.6-0.66,0.83c-1.78,1.56-3.42,2.89-4.91,4.01s-2.9,2.03-4.21,2.72
						c-1.31,0.7-2.56,1.21-3.75,1.53c-1.18,0.32-2.33,0.49-3.43,0.49v5.95C534.54,69.54,534.53,69.54,534.53,69.54z"/>
				</g>
			</g>
		</g>
		<g>
			<path class="st0" d="M66.73,41.96c-28.92,0-52.34,23.43-52.34,52.34c0,1.03,0.04,2.03,0.07,3.03H7.63c-0.38,0-0.58,0.23-0.73,0.5
				c-0.11,0.27-6.18,10.94-6.34,11.21c-0.11,0.27-0.11,0.42,0.19,0.42h15.86c6.49,21.5,26.46,37.17,50.11,37.17
				c28.92,0,52.34-23.43,52.34-52.34C119.06,65.39,95.64,41.96,66.73,41.96z M29.33,109.47h13.94l-6.72,11.63
				C33.55,117.68,31.09,113.77,29.33,109.47z M66.73,134.66c-10.98,0-20.89-4.38-28.19-11.48h11.33c0,0,32.56-57.37,32.67-57.6
				c0.16-0.23,0.08-0.39-0.15-0.39H69.11c-0.27,0-0.31,0.08-0.38,0.19c-0.08,0.11-18.36,31.95-18.36,31.95H26.48
				c-0.08-1-0.11-2-0.11-3.03c0-22.27,18.04-40.36,40.36-40.36c11.36,0,21.66,4.73,28.99,12.33c-3.19,5.38-17.47,29.64-19.39,33.18
				c-1.11-2.57-6.26-2.07-8.91-2.11c-1.15,1.92-6.56,12.14-6.56,12.14s2.99-0.04,5.68,0c2.61,0.04,2.92,2.76,1.88,4.49
				c-1.04,1.73-5.3,9.21-5.3,9.21h13.71c0,0,16.82-29.37,26.38-46.08c2.49,5.22,3.88,11.06,3.88,17.2
				C107.08,116.57,89,134.66,66.73,134.66z"/>
		</g>
	</g>
</g>
<g id="Logo">
</g>
</svg>
